<svg width="100" height="100" viewBox="0 0 100 100" fill="none" xmlns="http://www.w3.org/2000/svg">
<g clip-path="url(#clip0_1_2)">
<circle cx="50" cy="50" r="50" fill="#5E18EB"/>
<path d="M34.4346 54.707C34.4346 47.8027 34.5371 42.5049 34.7422 38.8135H34.708L29.4785 38.0957C29.1823 37.2526 28.9544 36.3298 28.7949 35.3271C28.6354 34.3018 28.5557 33.3105 28.5557 32.3535C28.5557 31.6243 28.6126 30.8268 28.7266 29.9609C31.5065 29.0267 35.141 28.3089 39.6299 27.8076C44.1188 27.2835 48.4027 27.0215 52.4814 27.0215C55.9678 27.0215 58.9642 27.2949 61.4707 27.8418C63.9772 28.3659 66.0736 29.5736 67.7598 31.4648C69.4688 33.3333 70.3232 36.1247 70.3232 39.8389C70.3232 41.2972 69.9245 42.9492 69.127 44.7949C68.3294 46.6178 67.2812 48.3382 65.9824 49.9561C64.7064 51.5511 63.3734 52.7816 61.9834 53.6475C63.7152 53.9437 65.3216 54.5475 66.8027 55.459C68.3066 56.3477 69.5257 57.5667 70.46 59.1162C71.3942 60.6429 71.8613 62.4544 71.8613 64.5508C71.8613 67.3535 71.3258 69.7689 70.2549 71.7969C69.1839 73.8249 67.6572 75.4997 65.6748 76.8213C61.8011 79.3962 56.3324 80.6836 49.2686 80.6836C46.4886 80.6836 44.0163 80.6266 41.8516 80.5127C39.7096 80.4215 37.7272 80.2393 35.9043 79.9658C34.9245 74.6794 34.4346 66.2598 34.4346 54.707ZM53.8828 52.5537C54.4753 50.8903 54.9766 48.7826 55.3867 46.2305C55.8197 43.6556 56.0817 41.5592 56.1729 39.9414C56.0589 39.7363 55.4779 39.5654 54.4297 39.4287C53.3815 39.2692 52.0257 39.1895 50.3623 39.1895C49.8382 39.1895 48.9609 39.2236 47.7305 39.292C47.5482 44.4189 47.2747 49.0218 46.9102 53.1006L50.3623 52.8271L53.8828 52.5537ZM52.1738 71.7285C54.0879 71.7285 55.4551 71.6488 56.2754 71.4893C56.8451 71.1475 57.3464 70.5322 57.7793 69.6436C58.235 68.7549 58.5768 67.7865 58.8047 66.7383C59.0326 65.6673 59.1465 64.7103 59.1465 63.8672C58.7363 62.6823 56.6969 62.0898 53.0283 62.0898C51.4788 62.0898 49.7015 62.1924 47.6963 62.3975C47.1494 62.4658 46.7393 62.5 46.4658 62.5L46.3633 67.4902C46.3405 67.9915 46.3177 68.5726 46.2949 69.2334C46.2721 69.8942 46.2607 70.6348 46.2607 71.4551C47.7646 71.6374 49.4053 71.7285 51.1826 71.7285H52.1738Z" fill="white"/>
<path d="M37.8811 22.4353C38.171 21.9751 37.9287 21.3014 37.3399 20.9305C36.751 20.5596 36.0387 20.632 35.7489 21.0922C35.459 21.5524 35.7013 22.2261 36.2901 22.597C36.8789 22.9679 37.5913 22.8955 37.8811 22.4353Z" fill="#66FFDB"/>
<path fill-rule="evenodd" clip-rule="evenodd" d="M32.75 21.25H35C36.0323 21.2493 37.0536 21.4618 38 21.874V31.75H26.75V27.25C26.75 25.6587 27.3821 24.1326 28.5074 23.0074C29.6326 21.8821 31.1587 21.25 32.75 21.25Z" fill="#8BFFC9"/>
<path d="M23.375 34C21.875 34 20.75 32.125 21.5 31.75L24.1452 31C25.8882 31.375 29.075 32.125 27.875 32.125C26.375 32.125 25.25 34 23.375 34Z" fill="#378C7E"/>
<path d="M38 21.874V31.75H41.75C41.9489 31.75 42.1397 31.671 42.2803 31.5303C42.421 31.3897 42.5 31.1989 42.5 31V28.75C42.5 25.675 40.649 23.0313 38 21.874Z" fill="#52E3CD"/>
<path d="M21.5 31.75L26.75 28.75C32.375 28.75 35.387 29.9575 38 31.75C36.5 33.25 35 34.75 32.75 34.75C30.5 34.75 28.8643 33.3182 27.5 32.5C25.625 31.375 23 31.375 21.5 31.75Z" fill="#52E3CD"/>
</g>
<defs>
<clipPath id="clip0_1_2">
<rect width="100" height="100" rx="24" fill="white"/>
</clipPath>
</defs>
</svg>
